<svg xmlns="http://www.w3.org/2000/svg" width="150" height="150" fill="none"><path fill="url(#a)" d="M93.805 9c22.091 0 40 17.909 40 40v47.805c0 2.669-.264 5.276-.763 7.799-17.184.399-31.039 14.254-31.438 31.438-2.523.499-5.13.763-7.8.763H46c-22.091 0-40-17.909-40-40V49C6 26.909 23.909 9 46 9z"/><path fill="#fff" d="M89.8 103.155c-20.816 12.98-43.891 2.695-51.685-12.907 3.518 1.125 6.912 2.44 10.423 3.27 3.58.845 7.273 1.21 10.97 1.792 1.522 3.708 2.247 4.189 6.464 4.181 1.519 0 3.037.051 4.552-.022 3.23-.156 4.647-2.068 4.596-6.085-.04-3.18-1.678-4.917-4.738-4.972-1.759-.032-3.521-.007-5.28 0-3.256.008-4.302.703-5.522 3.723-8.063-.46-15.769-2.273-22.845-6.337-.605-.346-1.158-1.075-1.388-1.745-5.678-16.392 2.43-36.036 18.137-43.44 13.803-6.505 27.114-5.328 39.052 4.257 10.554 8.471 14.608 19.892 12.925 33.316-.725 5.769-2.957 10.944-6.239 15.718-.346.503-.433 1.384-.276 1.996 1.103 4.261 3.059 8.023 6.653 10.762.226.175.419.393.671.63-4.502 1.588-11.265-.142-16.47-4.133z"/><path fill="#fff" d="M62.306 93.895a2.73 2.73 0 0 1 2.731-2.732h5.28c1.208 0 2.186.978 2.186 2.185a3.28 3.28 0 0 1-3.278 3.278h-4.188a2.73 2.73 0 0 1-2.731-2.732"/><path fill="url(#b)" d="M124.024 140.448a2.245 2.245 0 1 1-4.259-1.426l5.322-15.437a4.032 4.032 0 0 1 7.622.001l5.314 15.437a2.246 2.246 0 1 1-4.26 1.424l-4.757-14.672a.114.114 0 0 0-.216 0zm-.803-5.011c0-.963.78-1.744 1.743-1.744h7.806a1.744 1.744 0 0 1 0 3.488h-7.806a1.743 1.743 0 0 1-1.743-1.744"/><path fill="url(#c)" d="M142.335 142a2.195 2.195 0 0 1-2.195-2.195v-11.46a2.194 2.194 0 1 1 4.389 0v11.46a2.194 2.194 0 0 1-2.194 2.195m.01-17.893a2.38 2.38 0 0 1-1.68-.65q-.69-.66-.69-1.578 0-.909.69-1.558a2.36 2.36 0 0 1 1.68-.661q.978 0 1.669.661.7.65.701 1.558 0 .918-.701 1.578-.69.65-1.669.65"/><defs><linearGradient id="a" x1="6.187" x2="133.991" y1="136.805" y2="9.374" gradientUnits="userSpaceOnUse"><stop stop-color="#4800ff"/><stop offset="1" stop-color="#703bf7"/></linearGradient><linearGradient id="b" x1="118.044" x2="152.143" y1="148.538" y2="120.951" gradientUnits="userSpaceOnUse"><stop stop-color="#4800ff"/><stop offset="1" stop-color="#703bf7"/></linearGradient><linearGradient id="c" x1="118.044" x2="152.143" y1="148.538" y2="120.951" gradientUnits="userSpaceOnUse"><stop stop-color="#4800ff"/><stop offset="1" stop-color="#703bf7"/></linearGradient></defs></svg>