<svg xmlns="http://www.w3.org/2000/svg" aria-label="WooCommerce" viewBox="0 0 174 104"><path fill="#7f54b3" fill-rule="evenodd" d="M157.267 0H16.097C7.161 0-.07 7.303 0 16.166v53.887C0 78.987 7.233 86.22 16.167 86.22H83.03l30.56 17.017-6.949-17.017h50.626c8.934 0 16.166-7.232 16.166-16.166V16.166C173.433 7.232 166.2 0 157.267 0M13.119 12.48c-1.986.14-3.475.85-4.467 2.197-.993 1.276-1.348 2.907-1.135 4.75q6.275 39.885 11.7 53.817c1.417 3.403 3.048 5.034 4.963 4.893 2.978-.213 6.523-4.326 10.706-12.338q3.297-6.806 10.21-20.42c3.83 13.4 9.076 23.47 15.67 30.205 1.844 1.914 3.758 2.765 5.601 2.623 1.632-.141 2.908-.992 3.758-2.552q1.064-2.021.851-4.68c-.425-6.452.213-15.457 1.986-27.014 1.843-11.912 4.112-20.492 6.877-25.597.568-1.063.78-2.127.71-3.403-.142-1.631-.851-2.978-2.198-4.042-1.348-1.063-2.837-1.56-4.468-1.418-2.056.142-3.616 1.135-4.68 3.12-4.395 8.012-7.515 20.988-9.358 38.997C57.15 44.811 54.88 36.8 53.109 27.37c-.78-4.183-2.695-6.169-5.815-5.956q-3.191.213-5.317 4.254L26.449 55.234c-2.553-10.28-4.964-22.83-7.162-37.65q-.744-5.53-6.168-5.105m136.632 5.104c5.034 1.064 8.792 3.758 11.345 8.225 2.269 3.83 3.403 8.438 3.403 13.968 0 7.303-1.843 13.969-5.53 20.066-4.255 7.09-9.785 10.636-16.663 10.636q-1.807 0-3.829-.426c-5.034-1.063-8.792-3.757-11.345-8.224q-3.403-5.85-3.403-14.04 0-10.954 5.53-19.994c4.326-7.09 9.856-10.636 16.663-10.636q1.809 0 3.829.425m-2.978 38.36c2.624-2.34 4.396-5.815 5.389-10.494.284-1.631.496-3.404.496-5.247 0-2.056-.425-4.254-1.276-6.452-1.064-2.766-2.482-4.255-4.184-4.61-2.552-.496-5.034.923-7.373 4.397-1.915 2.694-3.12 5.53-3.758 8.437-.355 1.631-.497 3.404-.497 5.177 0 2.056.425 4.254 1.276 6.452 1.064 2.765 2.482 4.254 4.184 4.609 1.772.354 3.687-.426 5.743-2.27M116.64 25.808c-2.553-4.467-6.382-7.161-11.345-8.225q-2.02-.425-3.83-.425c-6.806 0-12.336 3.545-16.661 10.636q-5.531 9.04-5.53 19.995 0 8.19 3.402 14.039c2.553 4.467 6.311 7.161 11.345 8.224q2.02.426 3.83.426c6.877 0 12.407-3.545 16.661-10.636 3.688-6.097 5.53-12.763 5.53-20.066 0-5.53-1.134-10.139-3.402-13.968m-8.935 19.64c-.992 4.68-2.765 8.155-5.388 10.494-2.056 1.844-3.97 2.624-5.743 2.27-1.702-.355-3.12-1.844-4.184-4.61-.85-2.197-1.276-4.395-1.276-6.451 0-1.773.142-3.546.497-5.177.638-2.907 1.843-5.743 3.757-8.437 2.34-3.474 4.822-4.893 7.374-4.396 1.702.354 3.12 1.843 4.184 4.609.85 2.198 1.276 4.396 1.276 6.452 0 1.843-.142 3.616-.497 5.247"/></svg>